<?xml version="1.0" standalone="no"?>
<!DOCTYPE svg PUBLIC "-//W3C//DTD SVG 20010904//EN"
 "http://www.w3.org/TR/2001/REC-SVG-20010904/DTD/svg10.dtd">
<svg version="1.0" xmlns="http://www.w3.org/2000/svg"
 width="387.000000pt" height="387.000000pt" viewBox="0 0 387.000000 387.000000"
 preserveAspectRatio="xMidYMid meet">

<g transform="translate(0.000000,387.000000) scale(0.100000,-0.100000)"
fill="#000000" stroke="none">
<path d="M3152 3862 c-7 -5 -28 -33 -48 -63 -28 -44 -34 -60 -29 -87 5 -28 2
-37 -19 -53 -42 -33 -48 -52 -31 -99 20 -56 20 -56 -15 -70 -43 -18 -110 -94
-110 -125 0 -61 68 -141 140 -167 35 -12 36 -16 13 -56 -24 -41 -12 -59 54
-78 70 -20 69 -20 53 -39 -11 -13 -10 -14 3 -9 8 3 18 12 21 20 6 15 -29 35
-88 50 -37 9 -42 27 -16 64 24 34 21 60 -8 60 -29 0 -110 57 -132 92 -30 49
-25 74 24 126 32 33 52 46 72 47 33 0 33 0 15 77 -13 53 -13 60 4 78 10 11 29
20 42 20 27 0 27 -1 8 38 -20 40 -13 67 34 121 l38 45 49 -13 c27 -6 57 -13
66 -15 10 -1 21 -5 24 -9 4 -4 21 -7 37 -7 45 0 130 -46 151 -81 34 -58 -5
-159 -63 -159 -17 0 -38 -11 -57 -31 -16 -17 -46 -39 -66 -50 -49 -25 -54 -37
-21 -50 38 -14 63 -38 63 -60 0 -16 7 -18 46 -17 38 2 50 -2 65 -21 25 -30 24
-45 -5 -107 -25 -54 -72 -91 -130 -104 -31 -6 -33 -10 -24 -65 4 -27 -116 -87
-180 -89 -26 -1 -47 -6 -49 -13 -3 -9 12 -12 54 -10 42 2 77 12 126 36 75 38
80 42 81 82 1 24 10 33 56 56 46 24 59 37 83 82 37 75 36 121 -4 155 -20 17
-43 26 -65 26 -19 0 -34 5 -34 10 0 6 -12 22 -27 36 -14 13 -24 25 -22 27 2 1
27 21 56 45 28 23 60 42 70 42 49 0 83 59 83 143 0 56 -46 101 -138 133 -40
14 -88 27 -105 29 -94 13 -133 15 -145 7z"/>
<path d="M1935 3310 c-170 -23 -301 -74 -457 -177 -53 -36 -169 -168 -256
-291 -50 -73 -106 -195 -151 -331 -80 -241 -76 -213 -73 -545 3 -309 -2 -383
-40 -531 -22 -88 -50 -256 -69 -413 -12 -92 -11 -113 4 -190 10 -48 27 -104
38 -125 20 -39 20 -39 -1 -172 -20 -136 -27 -349 -14 -474 7 -58 8 -61 34 -61
l28 0 -4 123 c-3 67 -6 149 -9 182 -5 70 16 231 50 395 39 188 65 357 75 490
11 136 20 204 26 197 2 -2 12 -60 22 -128 10 -68 22 -123 28 -122 5 2 10 45
12 95 4 108 -35 379 -74 523 -39 142 -54 239 -54 344 0 129 11 185 77 381 68
206 126 316 218 420 22 25 55 65 74 90 45 59 154 143 233 180 112 51 266 78
500 86 203 7 207 6 245 -16 21 -12 83 -39 138 -59 129 -48 256 -133 360 -242
57 -60 84 -97 95 -129 8 -25 31 -83 52 -129 74 -161 93 -292 93 -616 -1 -223
-14 -347 -50 -451 -24 -71 -64 -285 -71 -381 -7 -95 12 -283 28 -283 4 0 8 24
9 53 0 54 16 149 18 110 0 -12 16 -102 35 -200 42 -219 66 -390 66 -466 0 -62
-28 -336 -36 -348 -2 -4 -8 -28 -13 -53 l-8 -46 42 0 c25 0 45 5 48 13 4 10 6
10 6 0 1 -7 12 -13 26 -13 23 0 25 3 25 49 0 27 -7 85 -15 128 -8 43 -15 130
-15 193 0 130 -37 401 -75 550 -51 201 -78 437 -60 526 l8 39 13 -50 c8 -27
23 -103 34 -169 26 -148 77 -344 130 -501 62 -183 143 -530 165 -707 5 -42 11
-58 23 -58 13 0 14 15 9 113 -12 206 -58 430 -137 674 -30 92 -82 268 -125
423 -14 47 -35 159 -48 249 -19 134 -21 173 -13 212 6 26 13 50 16 53 3 3 14
-45 24 -107 28 -174 63 -344 117 -562 27 -110 49 -222 49 -250 0 -27 5 -57 10
-65 7 -10 8 10 4 65 -8 87 -13 111 -72 350 -22 88 -50 219 -61 290 -12 72 -28
168 -35 215 -11 64 -13 150 -9 350 4 176 2 289 -6 338 -14 93 -67 274 -96 332
-12 25 -30 69 -40 98 -22 67 -62 127 -166 247 -112 128 -233 207 -408 266 -83
28 -90 29 -285 28 -111 -1 -228 -5 -261 -9z m-882 -1645 c1 -42 -27 -137 -36
-124 -2 2 -1 63 2 134 l4 130 15 -45 c8 -25 15 -67 15 -95z m13 -304 c-9 -80
-21 -193 -27 -251 -10 -99 -35 -239 -43 -248 -3 -2 -21 31 -41 73 -36 75 -37
80 -31 153 13 138 36 214 137 457 l13 30 4 -34 c2 -19 -4 -100 -12 -180z
m-112 -480 c23 -50 26 -68 21 -106 -4 -25 -11 -47 -14 -50 -4 -2 -16 21 -25
51 -21 68 -33 164 -19 164 5 0 22 -27 37 -59z m2473 -503 c-3 -8 -6 -5 -6 6
-1 11 2 17 5 13 3 -3 4 -12 1 -19z"/>
<path d="M356 3140 c-15 -5 -35 -19 -43 -30 -11 -16 -22 -20 -39 -16 -35 9
-90 -18 -108 -53 -9 -16 -24 -36 -34 -43 -22 -16 -42 -50 -42 -74 0 -9 10 -37
22 -62 l23 -45 -23 -15 c-45 -30 -12 -101 65 -141 44 -23 45 -10 1 24 -25 19
-50 46 -56 60 -10 22 -9 26 18 40 29 15 39 38 21 50 -5 3 -17 24 -26 48 -13
34 -14 49 -5 72 8 22 13 26 20 16 6 -10 13 -4 28 26 29 57 45 66 97 60 39 -4
47 -2 57 17 15 29 28 36 65 36 41 0 100 -50 105 -88 2 -15 8 -26 16 -24 24 4
72 -28 72 -49 0 -23 -27 -79 -38 -79 -4 0 -16 -16 -26 -35 -19 -34 -83 -75
-118 -75 -13 0 -17 -11 -17 -54 0 -60 7 -66 87 -86 34 -9 46 -17 54 -40 8 -25
16 -29 51 -32 35 -2 43 -7 45 -25 2 -14 -7 -32 -22 -48 -31 -31 -33 -51 -6
-60 10 -3 41 -24 67 -46 45 -37 171 -104 180 -95 2 2 -23 21 -55 43 -33 21
-81 58 -107 82 l-47 44 16 34 c26 54 -2 113 -52 113 -16 0 -35 11 -51 31 -19
23 -41 34 -81 43 -51 12 -55 15 -55 41 0 24 5 30 34 37 46 12 76 34 101 71 11
18 31 47 45 66 44 60 25 124 -43 145 -10 3 -23 19 -30 36 -28 62 -105 99 -166
80z"/>
<path d="M2737 2894 c-6 -6 39 -72 91 -134 17 -19 33 -32 37 -28 16 15 -9 70
-54 118 -45 48 -61 57 -74 44z"/>
<path d="M1738 2683 c-21 -2 -38 -6 -38 -9 0 -3 9 -33 21 -67 24 -71 54 -341
64 -577 4 -85 13 -209 20 -275 8 -66 16 -192 20 -280 7 -189 24 -304 76 -520
53 -224 81 -304 168 -486 22 -48 41 -92 41 -98 0 -6 5 -11 10 -11 6 0 10 3 10
6 0 15 -44 156 -76 240 -60 164 -139 444 -131 467 2 6 7 -4 12 -23 4 -19 25
-69 46 -111 22 -41 50 -107 63 -145 14 -38 37 -98 52 -134 32 -76 88 -301 105
-415 6 -44 17 -116 23 -160 11 -76 13 -80 39 -83 23 -3 27 0 27 23 0 124 -63
457 -111 587 l-29 80 32 -9 c45 -11 206 -9 303 4 130 18 250 63 279 105 9 12
18 19 21 17 2 -3 26 -66 51 -140 105 -304 131 -393 158 -543 19 -106 25 -121
43 -124 28 -4 33 19 33 164 0 138 15 339 34 464 7 49 10 112 6 150 -6 63 -6
64 -19 36 -18 -44 -49 -236 -61 -382 -5 -70 -12 -129 -14 -132 -3 -2 -17 36
-31 84 -14 49 -44 134 -65 189 -56 146 -134 411 -154 528 -8 46 -9 228 -1 248
3 8 21 24 40 37 l35 22 0 -79 c0 -87 16 -181 31 -181 5 0 9 6 10 13 0 6 4 77
8 157 l9 145 50 96 c66 126 72 165 38 266 -33 98 -34 179 -4 316 15 69 22 139
22 217 1 105 -1 118 -23 148 -13 18 -24 32 -26 30 -1 -2 2 -50 8 -108 10 -106
-3 -250 -23 -250 -5 0 -29 26 -53 58 -43 56 -116 123 -185 171 -38 26 -217
107 -337 153 -44 16 -114 42 -155 58 -41 16 -103 36 -137 44 -62 16 -267 28
-335 19z m299 -53 c45 -11 117 -35 160 -54 43 -18 96 -39 118 -46 22 -7 76
-28 120 -47 44 -20 96 -42 115 -50 142 -61 216 -114 309 -223 l61 -71 -6 -112
c-5 -99 -11 -123 -45 -209 -51 -126 -48 -146 5 -36 l42 86 23 -60 c28 -71 25
-100 -19 -191 -42 -87 -88 -137 -217 -239 -149 -117 -149 -117 -246 -129 -125
-15 -406 21 -516 67 -67 28 -68 30 -76 202 l-7 157 35 100 c64 182 55 166 82
149 14 -9 33 -12 49 -8 14 3 26 3 26 0 0 -4 -15 -37 -34 -74 -44 -89 -108
-253 -101 -260 7 -7 7 -7 43 78 17 41 51 120 76 175 61 135 97 235 86 235 -5
0 -13 -12 -16 -27 -4 -16 -11 -36 -16 -46 -9 -17 -11 -15 -26 14 -19 38 -64
58 -87 39 -8 -6 -19 -28 -26 -48 -11 -38 -75 -224 -86 -252 -4 -10 -9 -2 -14
20 -10 44 -30 395 -23 413 2 7 -2 53 -11 101 -8 49 -15 114 -15 145 0 32 -11
94 -24 139 -13 45 -21 84 -17 88 11 11 193 -6 278 -26z m678 -1394 c-4 -36
-10 -66 -14 -66 -19 1 -33 22 -38 57 -5 35 -2 43 22 62 16 12 30 19 32 17 3
-2 2 -34 -2 -70z m-707 -40 c4 -33 -17 -91 -28 -79 -5 4 -22 38 -38 75 l-30
67 46 -17 c39 -15 48 -22 50 -46z m640 -49 c7 -9 27 -19 43 -22 19 -4 30 -14
33 -28 2 -12 11 -60 20 -107 17 -89 13 -128 -19 -176 -31 -47 -219 -91 -430
-100 -141 -6 -156 3 -202 121 -37 95 -58 238 -42 283 5 13 9 42 9 64 0 40 0
40 33 34 91 -19 253 -27 337 -17 48 6 94 9 101 6 8 -3 28 3 44 13 l30 19 15
-37 c8 -21 21 -44 28 -53z m-628 -109 c0 -25 -3 -29 -10 -18 -13 20 -13 50 0
50 6 0 10 -15 10 -32z"/>
<path d="M2700 2146 c-7 -15 -10 -39 -7 -60 5 -31 -9 -66 -109 -266 -63 -126
-114 -233 -114 -237 1 -20 66 99 151 274 83 170 96 192 114 187 27 -9 28 -10
16 -31 -13 -22 -181 -393 -181 -400 0 -2 5 -1 11 3 13 8 89 166 148 309 23 55
48 112 56 127 8 14 15 37 15 50 0 62 -73 94 -100 44z"/>
<path d="M2813 1958 c-39 -101 -84 -214 -100 -253 -39 -92 -46 -120 -27 -104
8 6 14 15 14 20 0 4 24 61 54 126 56 125 141 364 134 383 -2 6 -35 -71 -75
-172z"/>
<path d="M2600 2063 c-14 -26 -53 -99 -87 -161 -62 -116 -159 -330 -151 -337
3 -3 262 500 276 536 2 5 0 9 -5 9 -4 0 -19 -21 -33 -47z"/>
<path d="M2341 1924 c-83 -180 -154 -354 -148 -360 8 -8 219 474 214 489 -2 6
-31 -53 -66 -129z"/>
<path d="M2181 1997 c-6 -16 -11 -30 -11 -32 0 -2 -20 -48 -45 -101 -25 -53
-45 -98 -45 -100 0 -2 -11 -27 -24 -56 -34 -77 -80 -208 -74 -213 7 -7 22 25
77 160 59 146 109 269 128 313 8 18 12 38 10 45 -3 7 -10 -1 -16 -16z"/>
<path d="M2298 1998 c-19 -30 -93 -185 -130 -273 -16 -38 -40 -94 -54 -124
-14 -29 -23 -58 -21 -65 4 -12 48 70 97 184 17 41 47 107 66 146 34 71 66 154
60 154 -2 0 -10 -10 -18 -22z"/>
<path d="M2432 1903 c-98 -206 -162 -348 -162 -362 0 -22 83 141 139 271 27
63 58 133 70 156 12 23 18 42 13 42 -5 0 -32 -48 -60 -107z"/>
<path d="M2815 1680 c-3 -5 -1 -10 4 -10 6 0 11 5 11 10 0 6 -2 10 -4 10 -3 0
-8 -4 -11 -10z"/>
<path d="M2479 1471 c-13 -10 -21 -23 -16 -27 12 -12 82 9 82 26 0 23 -39 23
-66 1z"/>
<path d="M105 2616 c-28 -28 -40 -66 -31 -99 16 -63 94 -117 171 -117 l46 0
-6 -33 c-14 -74 62 -112 165 -81 75 22 105 19 197 -16 43 -17 101 -37 128 -44
28 -8 59 -17 70 -21 18 -7 18 -6 5 8 -23 23 -288 127 -325 127 -8 0 -24 -9
-34 -19 -25 -25 -112 -37 -152 -21 -31 13 -41 36 -37 85 3 29 2 30 -54 36
-103 11 -175 84 -148 150 7 16 15 29 19 29 3 0 17 9 31 20 l25 20 -23 0 c-13
0 -34 -11 -47 -24z"/>
<path d="M1376 2213 c12 -198 14 -268 13 -443 0 -107 -4 -215 -8 -240 l-7 -45
-13 70 c-16 88 -70 265 -81 265 -5 0 2 -41 16 -92 13 -50 31 -138 39 -195 8
-58 17 -109 21 -114 3 -5 10 -98 15 -207 9 -187 28 -342 50 -399 7 -20 6 -34
-6 -59 -21 -44 -35 -124 -35 -197 0 -87 38 -354 76 -534 3 -16 12 -23 29 -23
27 0 27 -2 -1 130 -20 93 -52 302 -60 390 -6 74 10 220 25 220 3 0 19 -28 34
-63 16 -37 46 -81 70 -105 47 -46 202 -142 229 -142 27 0 100 -77 151 -160 44
-72 46 -80 53 -172 6 -93 8 -98 29 -98 20 0 22 4 19 45 -3 25 -2 45 1 45 4 0
15 -20 26 -45 17 -39 24 -45 49 -45 17 0 30 5 30 10 0 25 -156 300 -170 300
-5 0 -26 30 -46 68 -21 37 -55 91 -76 121 -21 30 -38 63 -38 74 0 10 -17 41
-38 67 -44 55 -67 100 -118 225 -82 204 -144 439 -144 544 0 33 -4 51 -9 46
-20 -21 -28 -109 -27 -290 2 -206 11 -259 65 -380 31 -67 82 -117 169 -167 30
-17 56 -38 59 -47 4 -13 24 -60 41 -93 3 -7 -63 22 -153 67 -54 27 -65 38
-108 110 -59 98 -82 172 -108 345 -16 107 -19 160 -14 254 3 65 6 268 6 450 0
257 -4 354 -17 436 -20 125 -21 130 -32 130 -5 0 -7 -26 -6 -57z m193 -1290
c-12 -13 -16 -8 -31 43 -10 33 -17 82 -17 109 l1 50 30 -93 c25 -78 28 -95 17
-109z m86 -126 c22 -56 42 -106 44 -112 2 -5 -15 6 -39 26 -24 19 -57 61 -74
91 -30 56 -30 57 -12 77 11 12 24 21 30 21 6 0 29 -46 51 -103z"/>
<path d="M775 1670 c-3 -5 -15 -10 -26 -10 -52 0 -100 -51 -91 -97 1 -6 -2
-14 -8 -18 -18 -11 -11 -64 11 -86 18 -18 30 -21 73 -16 29 3 60 1 70 -5 31
-17 65 7 91 64 14 29 25 61 25 72 0 10 -21 38 -47 62 -46 42 -85 55 -98 34z
m69 -55 c6 -24 26 -36 26 -15 0 21 20 9 26 -15 4 -16 -1 -41 -14 -68 -26 -55
-45 -71 -74 -61 -13 4 -45 8 -73 8 -42 1 -51 5 -62 26 -9 19 -9 27 0 39 7 8
11 23 9 33 -2 11 4 31 13 45 13 20 23 24 44 20 20 -4 32 0 44 14 21 24 52 12
61 -26z"/>
<path d="M3523 1562 c-17 -9 -51 -29 -75 -44 -32 -20 -58 -28 -98 -29 -30 -1
-59 -4 -63 -6 -13 -7 24 -43 59 -58 28 -12 32 -18 36 -65 3 -29 12 -59 22 -68
21 -22 87 -20 122 3 19 12 29 14 37 6 17 -17 47 -13 104 13 37 18 54 32 59 50
8 33 -14 76 -53 101 -19 12 -32 29 -33 41 0 23 -34 58 -65 68 -11 3 -34 -2
-52 -12z m68 -22 c10 -6 19 -20 19 -31 0 -28 18 -59 35 -59 18 0 55 -47 55
-70 0 -11 -17 -25 -49 -39 -41 -17 -54 -19 -75 -10 -20 10 -30 8 -59 -10 -66
-40 -117 -16 -117 56 0 36 -22 63 -51 63 -10 0 -19 5 -19 10 0 6 15 10 34 10
44 0 103 25 144 61 35 31 52 35 83 19z"/>
<path d="M1151 1005 c-32 -72 -51 -137 -71 -240 -11 -60 -27 -135 -35 -165
-28 -106 -49 -246 -51 -345 -2 -119 21 -255 43 -255 11 0 13 7 9 26 -28 109
-32 263 -10 376 45 238 64 325 73 348 13 28 11 -28 -14 -430 -19 -302 -19
-320 0 -320 11 0 15 11 15 38 0 20 7 145 15 277 7 132 17 290 20 350 3 61 10
146 16 190 6 44 9 102 7 130 l-3 49 -14 -29z"/>
<path d="M2661 200 c-1 -21 -23 -108 -48 -182 -12 -37 19 -16 37 25 24 55 34
126 21 157 l-10 25 0 -25z"/>
</g>
</svg>
